<?xml version="1.0" encoding="UTF-8" standalone="no"?>
<!-- Created with Inkscape (http://www.inkscape.org/) -->

<svg
   xmlns:dc="http://purl.org/dc/elements/1.1/"
   xmlns:cc="http://creativecommons.org/ns#"
   xmlns:rdf="http://www.w3.org/1999/02/22-rdf-syntax-ns#"
   xmlns:svg="http://www.w3.org/2000/svg"
   xmlns="http://www.w3.org/2000/svg"
   version="1.1"
   width="684.19403"
   height="654.5401"
   id="svg2870">
  <defs
     id="defs2872" />
  <metadata
     id="metadata2875">
    <rdf:RDF>
      <cc:Work
         rdf:about="">
        <dc:format>image/svg+xml</dc:format>
        <dc:type
           rdf:resource="http://purl.org/dc/dcmitype/StillImage" />
        <dc:title></dc:title>
      </cc:Work>
    </rdf:RDF>
  </metadata>
  <g
     transform="translate(-22.983063,-17.321111)"
     id="layer1">
    <path
       d="m 477.59865,17.321111 c 28.60916,13.976275 56.18652,30.391372 80.85606,50.464683 53.46631,42.491646 107.30781,88.922906 137.98059,151.206456 14.63288,29.07817 10.59945,62.56496 9.00485,93.89434 -3.18922,34.23719 -8.62966,68.66198 -20.72992,101.02317 -27.95256,69.31859 -86.6717,118.47007 -139.76279,168.27816 3.47062,8.25444 6.94124,16.50888 10.41186,24.76334 -25.79514,28.79676 -62.28355,43.24204 -97.36496,56.93692 -6.47224,1.96981 -19.3229,5.90943 -25.70134,7.97305 -0.0938,-9.75526 -0.28141,-29.07818 -0.28141,-38.83343 l -6.00323,1.40701 c -56.18652,4.59623 -112.18543,11.16226 -168.37196,15.47708 -19.51051,1.59462 -39.02102,2.62642 -58.53152,3.37683 -52.43451,-0.56281 -105.900815,6.94123 -157.303512,-5.62803 -13.694871,-2.81402 -28.233956,-18.10351 -10.880863,-28.23396 26.170356,-15.00809 68.661992,-4.22103 86.108895,-30.10997 -16.9779,-17.72831 -53.653905,4.31482 -69.693798,-20.63613 -12.756873,-11.34986 -3.001614,-26.54555 5.065232,-37.145 11.72506,-8.34825 23.731534,-16.22749 35.6442,-24.29434 58.156336,-43.89865 122.315906,-79.16765 192.384896,-100.08516 8.62966,-30.01618 17.4469,-59.93855 26.63936,-89.76712 59.37573,5.25284 119.03287,4.78383 178.50241,7.31645 0.28139,7.03504 1.0318,20.91751 1.31321,27.95256 33.29919,-5.44044 66.78597,-10.78707 98.67816,-22.23073 13.69487,-5.72183 27.29595,-12.00647 40.42802,-18.94771 22.32453,-15.38328 39.39623,-45.30565 22.23074,-70.9132 -30.48519,-57.03073 -101.30458,-60.68895 -156.7407,-74.94662 6.75364,-13.50729 13.97628,-26.73316 21.94933,-39.49004 C 497.48437,91.329731 472.72103,57.749138 477.59865,17.321111 z"
       id="path16"
       style="fill:#FF007F;fill-opacity:1" />
    <path
       d="m 141.82759,528.229 c 18.21071,-3.03511 23.26924,27.61958 3.94565,29.03597 -18.71656,5.56439 -23.87627,-28.32777 -3.94565,-29.03597 z"
       id="path30"
       style="fill:#000000" />
  </g>
</svg>
